<svg width="139" height="36" viewBox="0 0 139 36" fill="none" xmlns="http://www.w3.org/2000/svg">
<path fill-rule="evenodd" clip-rule="evenodd" d="M44.2388 28.3521L45.9645 24.342C47.8285 25.7359 50.3121 26.4604 52.7624 26.4604C54.5711 26.4604 55.7161 25.7635 55.7161 24.707C55.6884 21.7534 44.8804 24.0654 44.7974 16.6591C44.7698 12.8979 48.1106 9.99948 52.8454 9.99948C55.6608 9.99948 58.4706 10.6964 60.4785 12.2839L58.8634 16.377C57.027 15.2044 54.7426 14.3692 52.5688 14.3692C51.092 14.3692 50.1185 15.0661 50.1185 15.9566C50.1461 18.855 61.0371 17.2675 61.1478 24.342C61.1478 28.1862 57.8899 30.891 53.2104 30.891C49.7811 30.8854 46.6338 30.0779 44.2388 28.3521ZM110.509 22.8928C109.646 24.3973 108.031 25.4261 106.161 25.4261C103.401 25.4261 101.177 23.197 101.177 20.4425C101.177 17.6879 103.406 15.4588 106.161 15.4588C108.025 15.4588 109.646 16.4876 110.509 17.9921L115.271 15.3482C113.49 12.1733 110.061 9.99948 106.161 9.99948C100.392 9.99948 95.7125 14.6789 95.7125 20.448C95.7125 26.2171 100.392 30.8965 106.161 30.8965C110.088 30.8965 113.49 28.7504 115.271 25.5478L110.509 22.8928ZM63.5428 1.33203H69.5055V30.4983H63.5428V1.33203ZM117.611 1.33203V30.4983H123.573V21.7478L130.648 30.4983H138.281L129.282 20.1051L137.612 10.4088H130.31L123.568 18.4567V1.33203H117.611Z" fill="black"/>
<path d="M87.2219 22.9483C86.359 24.3698 84.5779 25.4263 82.5701 25.4263C79.81 25.4263 77.5864 23.1972 77.5864 20.4426C77.5864 17.6881 79.8155 15.459 82.5701 15.459C84.5779 15.459 86.359 16.5708 87.2219 18.02V22.9483ZM87.2219 10.4145V12.7819C86.2484 11.1391 83.8257 9.99414 81.2868 9.99414C76.0487 9.99414 71.928 14.6183 71.928 20.415C71.928 26.2117 76.0487 30.8912 81.2868 30.8912C83.8201 30.8912 86.2428 29.7517 87.2219 28.1034V30.4708H93.1845V10.4145H87.2219Z" fill="black"/>
<path fill-rule="evenodd" clip-rule="evenodd" d="M7.38413 22.92C7.38413 24.9555 5.74136 26.5982 3.70586 26.5982C1.67037 26.5982 0.0275879 24.9499 0.0275879 22.92C0.0275879 20.89 1.67037 19.2417 3.70586 19.2417H7.38413V22.92ZM9.2205 22.92C9.2205 20.8845 10.8633 19.2417 12.8988 19.2417C14.9343 19.2417 16.5771 20.8845 16.5771 22.92V32.1129C16.5771 34.1484 14.9343 35.7912 12.8988 35.7912C10.8633 35.7912 9.2205 34.1484 9.2205 32.1129V22.92Z" fill="#E01E5A"/>
<path fill-rule="evenodd" clip-rule="evenodd" d="M12.8988 8.15733C10.8634 8.15733 9.22057 6.51455 9.22057 4.47905C9.22057 2.44356 10.8634 0.800781 12.8988 0.800781C14.9343 0.800781 16.5771 2.44356 16.5771 4.47905V8.15733H12.8988ZM12.8988 10.0214C14.9343 10.0214 16.5771 11.6641 16.5771 13.6996C16.5771 15.7351 14.9343 17.3779 12.8988 17.3779H3.67827C1.64278 17.3779 0 15.7296 0 13.6996C0 11.6697 1.64278 10.0214 3.67827 10.0214H12.8988Z" fill="#36C5F0"/>
<path fill-rule="evenodd" clip-rule="evenodd" d="M27.6341 13.6996C27.6341 11.6641 29.2769 10.0214 31.3124 10.0214C33.3478 10.0214 34.9906 11.6641 34.9906 13.6996C34.9906 15.7351 33.3478 17.3779 31.3124 17.3779H27.6341V13.6996ZM25.7977 13.6996C25.7977 15.7351 24.1549 17.3779 22.1194 17.3779C20.0839 17.3779 18.4412 15.7351 18.4412 13.6996V4.47905C18.4412 2.44356 20.0839 0.800781 22.1194 0.800781C24.1549 0.800781 25.7977 2.44356 25.7977 4.47905V13.6996Z" fill="#2EB67D"/>
<path fill-rule="evenodd" clip-rule="evenodd" d="M22.1194 28.4346C24.1549 28.4346 25.7977 30.0774 25.7977 32.1129C25.7977 34.1484 24.1549 35.7912 22.1194 35.7912C20.0839 35.7912 18.4412 34.1484 18.4412 32.1129V28.4346H22.1194ZM22.1194 26.5982C20.0839 26.5982 18.4412 24.9555 18.4412 22.92C18.4412 20.8845 20.0839 19.2417 22.1194 19.2417H31.34C33.3755 19.2417 35.0183 20.8845 35.0183 22.92C35.0183 24.9555 33.3755 26.5982 31.34 26.5982H22.1194Z" fill="#ECB22E"/>
</svg>
