<svg width="186" height="37" viewBox="0 0 186 37" fill="none" xmlns="http://www.w3.org/2000/svg">
<path d="M21.7341 6.94195L11.0076 13.7887L21.7341 20.6354L11.0076 27.4822L0.281006 20.5784L11.0076 13.7316L0.281006 6.94195L11.0076 0.0952148L21.7341 6.94195ZM10.9505 29.6503L21.6771 22.8036L32.4036 29.6503L21.6771 36.497L10.9505 29.6503ZM21.7341 20.5784L32.4607 13.7316L21.7341 6.94195L32.4036 0.0952148L43.1302 6.94195L32.4036 13.7887L43.1302 20.6354L32.4036 27.4822L21.7341 20.5784Z" fill="#0061FF"/>
<path d="M51.5173 6.94152H60.1899C65.7243 6.94152 70.2888 10.1367 70.2888 17.4399V18.9804C70.2888 26.3406 66.0096 29.6499 60.361 29.6499H51.5173V6.94152ZM56.3671 11.0496V25.4848H60.0758C63.2138 25.4848 65.3249 23.4307 65.3249 18.8663V17.6681C65.3249 13.1036 63.0997 11.0496 59.9046 11.0496H56.3671ZM72.8563 11.2778H76.7362L77.3638 15.557C78.1055 12.6471 79.9884 11.1066 83.4117 11.1066H84.6099V16.0134H82.6129C78.6761 16.0134 77.7061 17.3828 77.7061 21.2626V29.7069H72.9134V11.2778H72.8563ZM85.5799 20.8632V20.3497C85.5799 14.1877 89.5167 10.8213 94.88 10.8213C100.357 10.8213 104.18 14.1877 104.18 20.3497V20.8632C104.18 26.9112 100.472 30.1634 94.88 30.1634C88.9462 30.1063 85.5799 26.9112 85.5799 20.8632ZM99.2733 20.8062V20.3497C99.2733 16.9263 97.5616 14.8723 94.823 14.8723C92.1413 14.8723 90.3726 16.7552 90.3726 20.3497V20.8062C90.3726 24.1154 92.0843 25.9983 94.823 25.9983C97.5616 25.9412 99.2733 24.1154 99.2733 20.8062ZM106.691 11.2778H110.685L111.141 14.7582C112.111 12.4189 114.165 10.8213 117.189 10.8213C121.868 10.8213 124.949 14.1877 124.949 20.4068V20.9203C124.949 26.9682 121.525 30.1634 117.189 30.1634C114.279 30.1634 112.282 28.8511 111.312 26.74V36.0402H106.634L106.691 11.2778ZM120.099 20.8062V20.4068C120.099 16.7552 118.216 14.9294 115.706 14.9294C113.024 14.9294 111.255 16.9834 111.255 20.4068V20.7491C111.255 24.0013 112.967 26.0553 115.648 26.0553C118.387 25.9983 120.099 24.2295 120.099 20.8062ZM132.024 26.2836L131.624 29.6499H127.516V5.11572H132.195V14.53C133.222 12.1336 135.276 10.8213 138.186 10.8213C142.579 10.8784 145.831 13.9024 145.831 20.0074V20.5779C145.831 26.6829 142.75 30.1634 138.072 30.1634C134.99 30.1063 132.994 28.6799 132.024 26.2836ZM140.924 20.5779V20.1215C140.924 16.7552 139.099 14.8723 136.531 14.8723C133.906 14.8723 132.081 16.9834 132.081 20.1785V20.5779C132.081 24.0013 133.849 25.9983 136.474 25.9983C139.27 25.9983 140.924 24.2295 140.924 20.5779ZM147.885 20.8632V20.3497C147.885 14.1877 151.822 10.8213 157.185 10.8213C162.663 10.8213 166.485 14.1877 166.485 20.3497V20.8632C166.485 26.9112 162.72 30.1634 157.185 30.1634C151.251 30.1063 147.885 26.9112 147.885 20.8632ZM161.636 20.8062V20.3497C161.636 16.9263 159.924 14.8723 157.185 14.8723C154.504 14.8723 152.735 16.7552 152.735 20.3497V20.8062C152.735 24.1154 154.447 25.9983 157.185 25.9983C159.924 25.9412 161.636 24.1154 161.636 20.8062ZM172.762 20.1215L166.314 11.2778H171.849L175.557 16.8122L179.323 11.2778H184.801L178.239 20.0644L185.143 29.6499H179.723L175.5 23.5449L171.392 29.6499H165.744L172.762 20.1215Z" fill="black"/>
</svg>
