<svg width="132" height="44" viewBox="0 0 132 44" fill="none" xmlns="http://www.w3.org/2000/svg">
<path d="M16.3493 0.819824H17.5194C21.5818 0.908138 25.578 2.54194 28.4482 5.43421C27.3885 6.51605 26.3066 7.55374 25.2689 8.63558C23.6572 7.17841 21.7143 6.05241 19.5948 5.655C16.4597 4.99264 13.0817 5.58876 10.4543 7.37711C7.58413 9.25378 5.64123 12.4331 5.22174 15.8331C4.7581 19.1891 5.70747 22.7216 7.89323 25.3269C9.99068 27.8659 13.192 29.4555 16.5038 29.5659C19.5948 29.7425 22.8182 28.7932 25.0702 26.6295C26.8365 25.1061 27.6534 22.7878 27.9183 20.5358C24.2533 20.5358 20.5883 20.5579 16.9233 20.5358V15.9877H32.3561C33.1509 20.867 32.0029 26.3645 28.2937 29.8529C25.8209 32.3257 22.3987 33.7829 18.9104 34.0699C15.5324 34.4011 12.044 33.7608 9.04131 32.127C5.44253 30.2062 2.57233 26.9607 1.15932 23.1411C-0.165389 19.6306 -0.187467 15.6565 1.04892 12.124C2.17492 8.90052 4.33861 6.05241 7.12049 4.06535C9.79197 2.10037 13.0375 1.01853 16.3493 0.819824Z" fill="#3780FF"/>
<path d="M104.884 1.96826H109.608V33.4962C108.041 33.4962 106.451 33.5183 104.884 33.4741C104.906 22.9869 104.884 12.4776 104.884 1.96826Z" fill="#38B137"/>
<path d="M42.8654 12.897C45.7798 12.3451 48.937 12.9633 51.3435 14.7075C53.5293 16.2529 55.0527 18.6816 55.5164 21.331C56.1125 24.3999 55.3618 27.7558 53.3748 30.1844C51.2332 32.9001 47.7227 34.3572 44.3005 34.1365C41.1654 33.9598 38.1186 32.3923 36.264 29.8312C34.1665 27.0051 33.6587 23.1193 34.8068 19.8076C35.9549 16.2529 39.2004 13.5373 42.8654 12.897ZM43.5278 17.0919C42.3356 17.401 41.2316 18.0854 40.4368 19.0569C38.2952 21.618 38.4277 25.7908 40.7901 28.1753C42.1369 29.5441 44.1681 30.1844 46.0447 29.8091C47.7889 29.5 49.3123 28.3298 50.1513 26.7843C51.6085 24.157 51.189 20.5362 48.9591 18.4829C47.524 17.1582 45.4265 16.6062 43.5278 17.0919Z" fill="#FA3913"/>
<path d="M66.2684 12.8972C69.6023 12.2569 73.2452 13.1842 75.74 15.5245C79.8025 19.1675 80.244 25.9897 76.7777 30.1846C74.6803 32.834 71.2802 34.2912 67.9243 34.1366C64.7229 34.0483 61.5657 32.4587 59.667 29.8313C57.5254 26.939 57.0617 22.9649 58.276 19.5869C59.4903 16.1427 62.6696 13.5154 66.2684 12.8972ZM66.9308 17.0921C65.7385 17.4012 64.6346 18.0856 63.8398 19.035C61.7203 21.5519 61.8086 25.6585 64.0827 28.0651C65.4294 29.5001 67.5269 30.2067 69.4698 29.8092C71.1919 29.4781 72.7374 28.33 73.5764 26.7845C75.0115 24.1351 74.592 20.5142 72.34 18.4609C70.9049 17.1362 68.8074 16.6064 66.9308 17.0921Z" fill="#FCBD06"/>
<path d="M86.1168 14.1774C88.6558 12.5878 92.0338 12.1462 94.7715 13.5151C95.6326 13.8904 96.3391 14.5307 97.0235 15.171C97.0456 14.5749 97.0235 13.9567 97.0456 13.3385C98.5249 13.3605 100.004 13.3385 101.505 13.3605V32.8337C101.483 35.7701 100.733 38.8832 98.6132 41.0248C96.2949 43.3872 92.7403 44.1158 89.539 43.63C86.1168 43.1222 83.1362 40.6274 81.8115 37.4702C83.1362 36.8299 84.5272 36.3221 85.896 35.726C86.6688 37.5364 88.2363 39.0819 90.2013 39.4351C92.1663 39.7884 94.4404 39.3027 95.7209 37.6689C97.0898 35.9909 97.0898 33.6948 97.0235 31.6415C96.0079 32.635 94.8378 33.5181 93.4248 33.8493C90.3559 34.7104 86.9779 33.6506 84.6155 31.5752C82.231 29.4999 80.818 26.2985 80.9505 23.1192C81.0167 19.5204 83.0479 16.0541 86.1168 14.1774ZM90.687 17.0035C89.3403 17.2243 88.0818 17.9749 87.2207 19.0126C85.1454 21.4854 85.1454 25.4374 87.2428 27.8661C88.435 29.3012 90.3559 30.096 92.2104 29.8973C93.9546 29.7206 95.5664 28.6167 96.4274 27.0933C97.8846 24.5101 97.6417 20.9997 95.6768 18.7477C94.4624 17.3567 92.5195 16.6723 90.687 17.0035Z" fill="#3780FF"/>
<path d="M115.283 15.3031C117.932 12.8303 122.017 11.9913 125.417 13.2939C128.64 14.5082 130.693 17.5771 131.731 20.7344C126.94 22.7214 122.171 24.6864 117.38 26.6734C118.042 27.9319 119.058 29.08 120.427 29.5436C122.348 30.2281 124.644 29.9852 126.256 28.7047C126.896 28.2189 127.404 27.5787 127.889 26.9605C129.104 27.7774 130.318 28.5722 131.532 29.3891C129.81 31.9723 126.918 33.7827 123.805 34.0697C120.361 34.4892 116.696 33.1645 114.466 30.4709C110.801 26.2319 111.154 19.1226 115.283 15.3031ZM117.645 19.3876C116.894 20.4694 116.585 21.7941 116.607 23.0967C119.809 21.772 123.01 20.4473 126.211 19.1005C125.682 17.8642 124.401 17.1135 123.098 16.9148C121.001 16.5395 118.815 17.6655 117.645 19.3876Z" fill="#FA3913"/>
</svg>
