<svg width="64" height="81" viewBox="0 0 64 81" fill="none" xmlns="http://www.w3.org/2000/svg">
<path d="M53.964 75.683V80.5824H55.5352V77.3204H61.2536V80.5824H62.8237V75.6915L53.964 75.683ZM55.3601 74.0982H61.4017C62.2408 73.9314 62.8649 73.1908 63.0408 72.4744H53.7212C53.8953 73.1911 54.5286 73.9314 55.3601 74.0982ZM49.2054 80.5856C49.9976 80.2497 50.4238 79.6688 50.587 78.9891H43.54L43.5444 72.4785L41.9647 72.4829V80.5856H49.2054ZM30.2175 74.0763H35.7971C36.6382 73.8319 37.3446 73.1911 37.5168 72.4807H28.6534V77.269H35.9078V78.9493L30.2175 78.9538C29.3258 79.2024 28.5696 79.8012 28.1924 80.5921L28.6534 80.5836H37.4664V75.677H30.2175V74.0763ZM16.4433 74.0917H22.4829C23.3231 73.9242 23.9476 73.1844 24.1227 72.4673H14.8035C14.9775 73.1844 15.6111 73.9242 16.4433 74.0917ZM16.4433 77.294H22.4829C23.3231 77.1283 23.9476 76.3878 24.1227 75.6703H14.8035C14.9775 76.388 15.6111 77.1283 16.4433 77.294ZM16.4433 80.5847H22.4829C23.3231 80.4177 23.9476 79.6773 24.1227 78.9607H14.8035C14.9775 79.6776 15.6111 80.4177 16.4433 80.5847ZM0.731079 72.487C0.912638 73.1951 1.52574 73.9189 2.3669 74.1002H4.90918L5.03887 74.1514V80.5666H6.62639V74.1514L6.77061 74.1002H9.31513C10.1657 73.8811 10.7656 73.1951 10.944 72.487V72.4713H0.731079V72.487Z" fill="#E82127"/>
<path d="M31.8889 56.458L39.8212 11.8465C47.382 11.8465 49.7669 12.6756 50.1112 16.0597C50.1112 16.0597 55.1833 14.1686 57.7414 10.3277C47.7588 5.70192 37.7285 5.49331 37.7285 5.49331L31.8757 12.622L31.8889 12.6211L26.0361 5.49219C26.0361 5.49219 16.0056 5.70103 6.02429 10.3268C8.58021 14.1677 13.6543 16.0589 13.6543 16.0589C14.0006 12.6745 16.3826 11.8454 23.8927 11.8401L31.8889 56.458Z" fill="#E82127"/>
<path d="M31.8861 3.43442C39.9557 3.37271 49.1922 4.68276 58.6476 8.80384C59.9113 6.52921 60.2362 5.52392 60.2362 5.52392C49.9001 1.43459 40.2204 0.0351045 31.885 0C23.55 0.0351045 13.8708 1.43481 3.53601 5.52392C3.53601 5.52392 3.99706 6.76219 5.12354 8.80384C14.5771 4.68276 23.8152 3.37271 31.885 3.43442H31.8861Z" fill="#E82127"/>
</svg>
