<svg width="10" height="10" viewBox="0 0 10 10" fill="none" xmlns="http://www.w3.org/2000/svg">
<path d="M9.14451 3.82459C9.11832 3.74745 9.07012 3.67967 9.00585 3.62961C8.94157 3.57956 8.86405 3.54942 8.78285 3.54292L6.40743 3.35417L5.37951 1.07876C5.34678 1.00547 5.29353 0.943223 5.2262 0.89953C5.15887 0.855837 5.08033 0.832564 5.00006 0.83252C4.9198 0.832476 4.84124 0.855662 4.77386 0.899282C4.70648 0.942901 4.65316 1.00509 4.62035 1.07834L3.59243 3.35417L1.21701 3.54292C1.1372 3.54925 1.0609 3.57843 0.997244 3.62698C0.933585 3.67553 0.88526 3.74139 0.858052 3.81668C0.830843 3.89198 0.825904 3.97352 0.843823 4.05155C0.861743 4.12958 0.901763 4.20079 0.959096 4.25667L2.71451 5.96792L2.09368 8.65626C2.07483 8.73763 2.08087 8.82279 2.11102 8.90069C2.14117 8.97859 2.19404 9.04563 2.26276 9.09311C2.33149 9.14058 2.4129 9.16631 2.49642 9.16695C2.57995 9.16758 2.66174 9.1431 2.73118 9.09667L4.99993 7.58417L7.26868 9.09667C7.33965 9.1438 7.42335 9.16805 7.50853 9.16619C7.5937 9.16432 7.67625 9.13641 7.74509 9.08623C7.81393 9.03604 7.86575 8.96597 7.89358 8.88545C7.92141 8.80493 7.92392 8.71782 7.90076 8.63584L7.13868 5.96917L9.02868 4.26834C9.15243 4.15667 9.19785 3.98251 9.14451 3.82459Z" fill="#FA3913"/>
</svg>
